<svg xmlns="http://www.w3.org/2000/svg" viewBox="0 0 85.64 22.74"><defs><style>.cls-1,.cls-2,.cls-3{fill:#1d1d1b;}.cls-2{fill-rule:evenodd;}.cls-3{stroke:#fff;stroke-miterlimit:10;stroke-width:0.5px;}</style></defs><g id="Capa_2" data-name="Capa 2"><g id="Capa_1-2" data-name="Capa 1"><path class="cls-1" d="M14,2.84h3.35v.28a3.17,3.17,0,0,1-.84,2.23,2.87,2.87,0,0,1-2.18.88A3,3,0,0,1,11.2,3.12,3,3,0,0,1,12.09.88,3,3,0,0,1,14.33,0a3,3,0,0,1,2.84,1.72L16.51,2A2.34,2.34,0,0,0,14.33.65a2.19,2.19,0,0,0-1.73.75,2.32,2.32,0,0,0-.7,1.72,2.5,2.5,0,0,0,.7,1.76,2.39,2.39,0,0,0,1.73.7A2.09,2.09,0,0,0,15.91,5a2.17,2.17,0,0,0,.74-1.49H14Z"/><path class="cls-1" d="M22.66,1.68l0,.65h-.28c-1.12,0-1.77.83-1.77,2.09V6.14h-.7V1.72h.7V2.79a2,2,0,0,1,1.77-1.11h.32"/><path class="cls-1" d="M28.86,1.72V6.09h-.7V5.4a2,2,0,0,1-3,.32,1.92,1.92,0,0,1-.47-1.39V1.72h.7V4.23a1.24,1.24,0,0,0,1.21,1.35c.93,0,1.54-.65,1.54-1.76V1.72Z"/><path class="cls-1" d="M35.19,5.16a1.65,1.65,0,0,0,.47-1.25,1.69,1.69,0,0,0-.47-1.26A1.74,1.74,0,0,0,34,2.19a1.58,1.58,0,0,0-1.17.51,1.56,1.56,0,0,0-.51,1.21,1.72,1.72,0,0,0,.51,1.25,1.68,1.68,0,0,0,2.33,0m.47-2.93a2.28,2.28,0,0,1,.65,1.68,2.12,2.12,0,0,1-.65,1.67,2,2,0,0,1-1.54.65,2.17,2.17,0,0,1-1.77-.79V7.63h-.7V1.72h.7v.7a2.1,2.1,0,0,1,1.77-.84,2.12,2.12,0,0,1,1.54.65"/><path class="cls-1" d="M41.9,5.16a1.68,1.68,0,0,0,.46-1.25A1.53,1.53,0,0,0,41.9,2.7a1.69,1.69,0,0,0-1.21-.51,1.58,1.58,0,0,0-1.17.51A1.41,1.41,0,0,0,39,3.91a1.54,1.54,0,0,0,.51,1.25,1.55,1.55,0,0,0,1.17.47,1.65,1.65,0,0,0,1.21-.47m.46-2.93a2.29,2.29,0,0,1,.7,1.68,2.25,2.25,0,0,1-.7,1.67,2.48,2.48,0,0,1-3.35,0,2.21,2.21,0,0,1-.65-1.67A2.24,2.24,0,0,1,39,2.23a2.48,2.48,0,0,1,3.35,0"/><polygon class="cls-2" points="35.33 17.55 31.98 20.85 22.66 11.55 26.02 8.24 35.33 17.55"/><polygon class="cls-2" points="24.04 19.08 20.68 22.39 11.37 13.08 14.72 9.78 24.04 19.08"/><polygon class="cls-2" points="68.21 19.08 64.86 22.39 55.54 13.08 58.9 9.78 68.21 19.08"/><path class="cls-3" d="M13.86,8.94a2.31,2.31,0,0,0-3.31,0L.35,19.08l3.31,3.31,8.52-8.52a4.76,4.76,0,0,1,6.66,0Z"/><path class="cls-3" d="M58.06,8.94a2.37,2.37,0,0,0-3.36,0L44.55,19.08l3.31,3.31,8.52-8.52a4.76,4.76,0,0,1,6.66,0Z"/><path class="cls-3" d="M32.82,21.69a2.36,2.36,0,0,0,3.35,0L46.32,11.55,43,8.24l-8.52,8.52a4.76,4.76,0,0,1-6.66,0Z"/><polygon class="cls-2" points="75.1 19.04 70.68 19.22 70.68 8.2 75.1 8.2 75.1 19.04"/><path class="cls-3" d="M70.68,20.15a2.24,2.24,0,0,0,2.23,2.24H85.39V18H75.1a4.41,4.41,0,0,1-4.42-4.42Z"/></g></g></svg>