<svg width="545" height="72" viewBox="0 0 545 72" fill="none" xmlns="http://www.w3.org/2000/svg">
<g clip-path="url(#clip0_44_372)">
<path d="M162.12 46.79C158.94 47.7981 155.635 48.3602 152.3 48.46C144.82 48.46 143.3 41.9 143.3 36.4C143.3 27.87 146.39 23.56 152.5 23.56C154.22 23.5284 155.933 23.7818 157.57 24.31L162.94 26.48L163 19.4L162.27 19.09C158.471 17.4693 154.399 16.5804 150.27 16.47C139.27 16.47 132.27 24.32 132.27 36.47C132.27 48.04 139.09 55.81 149.27 55.81C153.7 55.81 157.77 54.81 163.82 52.18L164.82 51.77L163.25 46.48L162.12 46.79Z" fill="white"/>
<path d="M35.2 27.18C39.99 25.18 42.28 21.61 42.28 15.86C42.28 10.27 39.63 5.99999 35 4.10999C31.77 2.77999 28.74 2.45999 19.52 2.45999H0V7.99999L6.14 8.89999V55.05H21.65C29.26 55.05 32.46 54.59 35.92 52.99C38.4301 51.8876 40.5547 50.0621 42.0224 47.7465C43.4901 45.431 44.2343 42.7305 44.16 39.99C44.16 33.19 41.16 29.06 35.16 27.18M17.09 9.24999H20.09C24.14 9.24999 27.31 9.24999 29.27 10.91C29.9603 11.5905 30.4961 12.4116 30.8412 13.3174C31.1863 14.2232 31.3325 15.1927 31.27 16.16C31.27 21.39 29.67 23.45 23.5 24.07L19.07 24.54L17.07 27.94L17.09 9.24999ZM29.67 46.25C27.22 48.1 23.57 48.25 19.05 48.25H17.05V31L17.31 31.05H21C24.95 31.05 28.13 31.17 30.16 32.79C31.0484 33.6158 31.7438 34.6273 32.1967 35.7525C32.6495 36.8778 32.8487 38.089 32.78 39.3C32.8484 40.6242 32.6075 41.9462 32.0764 43.1612C31.5453 44.3762 30.7385 45.4509 29.72 46.3" fill="white"/>
<path d="M343.31 27.18C348.11 25.18 350.4 21.61 350.4 15.86C350.4 10.27 347.75 5.97999 343.12 4.10999C339.89 2.77999 336.84 2.45999 327.64 2.45999H308.12V7.99999L314.25 8.89999V55.05H329.77C337.38 55.05 340.59 54.59 344.04 52.99C346.55 51.8876 348.675 50.0621 350.143 47.7465C351.61 45.431 352.354 42.7305 352.28 39.99C352.28 33.19 349.28 29.06 343.28 27.18M325.21 9.24999H328.21C332.21 9.24999 335.43 9.24999 337.37 10.91C338.064 11.5877 338.603 12.4083 338.948 13.3149C339.293 14.2214 339.437 15.1922 339.37 16.16C339.37 21.39 337.78 23.45 331.6 24.07L327.18 24.54L325.18 27.94L325.21 9.24999ZM337.79 46.25C335.34 48.1 331.68 48.25 327.15 48.25H325.21V31L325.47 31.05H329.07C333.02 31.05 336.19 31.17 338.22 32.79C339.115 33.6118 339.816 34.6221 340.273 35.748C340.729 36.8738 340.93 38.0871 340.86 39.3C340.927 40.6251 340.685 41.9476 340.152 43.1626C339.619 44.3777 338.81 45.4519 337.79 46.3" fill="white"/>
<path d="M116.75 16.46C113.56 16.46 109.48 17.59 104.84 19.53C104.78 18.66 104.63 16.53 104.63 16.53L88.8201 18.53V24.1H94.6401V55.05H105C105 55.05 105.1 27.7 105.1 26.13C107.673 25.2187 110.372 24.7094 113.1 24.62C114.336 24.4953 115.572 24.8537 116.55 25.62C117.55 26.62 117.55 28.62 117.55 30.9V55.05H128V30.32C128 24.58 127.74 22.71 125.93 20.37C123.93 17.78 120.85 16.46 116.73 16.46" fill="white"/>
<path d="M185.21 16.47C173.56 16.47 166.31 24.02 166.31 36.17C166.31 48.32 173.38 55.8 185.21 55.8C196.82 55.8 204.04 48.25 204.04 36.1C204.04 23.95 197.04 16.47 185.21 16.47ZM185.15 49C181.77 49 177.28 47.67 177.28 36.17C177.28 24.87 181.28 23.34 185.21 23.34C188.59 23.34 193.08 24.67 193.08 36.1C193.08 47.53 189.08 49 185.15 49Z" fill="white"/>
<path d="M458.22 16.47C446.57 16.47 439.33 24.02 439.33 36.17C439.33 48.32 446.4 55.8 458.22 55.8C469.83 55.8 477.05 48.25 477.05 36.1C477.05 23.95 470.05 16.47 458.22 16.47ZM458.14 49C454.76 49 450.29 47.67 450.29 36.17C450.29 24.87 454.29 23.34 458.22 23.34C461.6 23.34 466.09 24.67 466.09 36.1C466.09 47.53 462.09 49 458.14 49Z" fill="white"/>
<path d="M502.09 47.81L494.73 48.92C493.09 48.92 492.66 48.49 492.39 48.09C492.12 47.69 492.13 47.46 492.13 44.53C492.13 44.2 492.13 26.18 492.13 24.1H502.52V17.66H492.14V7.66L490.84 7.77L481.64 8.54V44.33C481.64 48.33 481.97 50.84 483.64 52.83C485.31 54.82 487.64 55.71 491.3 55.71C495.188 55.5948 499.021 54.7537 502.6 53.23L503.6 52.82L502.09 47.81Z" fill="white"/>
<path d="M376.24 16.47C364.59 16.47 357.36 24.02 357.36 36.17C357.36 48.32 364.42 55.8 376.24 55.8C387.86 55.8 395.06 48.25 395.06 36.1C395.06 23.95 388.06 16.47 376.24 16.47ZM376.17 49C372.79 49 368.31 47.67 368.31 36.17C368.31 24.87 372.31 23.34 376.24 23.34C379.62 23.34 384.12 24.67 384.12 36.1C384.12 47.53 380.12 49 376.17 49Z" fill="white"/>
<path d="M424.63 19.5C422.134 18.1256 419.329 17.4097 416.48 17.42C406.04 17.42 398.62 25.73 398.62 37.42C398.62 48.59 404.5 55.61 413.91 55.61C416.34 55.61 418.68 54.96 424.34 52.67V55.67C424.34 62.19 421.98 64.05 413.83 64.05C409.622 64.0005 405.431 63.4976 401.33 62.55V68.8C409.13 70.52 412.33 71.02 416.33 71.02C421.39 71.02 425.74 70.17 428.81 68.51C433.38 66.08 435.07 62.64 435.07 56.06V17.91H424.63V19.5ZM424.34 47.5C422.738 47.7805 421.116 47.9277 419.49 47.94C413.17 47.94 409.71 43.86 409.71 36.35C409.71 28.55 413.61 24.04 420.45 24.04C421.755 24.0316 423.058 24.1488 424.34 24.39V47.5Z" fill="white"/>
<path d="M83.5401 18.16H73.3201V19.72C70.8732 18.3611 68.119 17.6519 65.3201 17.66C55.1001 17.66 47.8401 25.93 47.8401 37.55C47.8401 48.67 53.5801 55.66 62.8401 55.66C65.2201 55.66 68.3101 54.59 73.0501 51.86V55.32H73.2601L87.7901 53.86V47.61H83.5401V18.16ZM73.3501 47.77C71.6992 48.0614 70.0265 48.2119 68.3501 48.22C61.9001 48.22 58.3501 44.08 58.3501 36.49C58.3501 28.6 62.3501 24.04 69.3501 24.04C70.6923 24.0332 72.0319 24.1571 73.3501 24.41V47.77Z" fill="white"/>
<path d="M540.77 18.16H530.54V19.72C528.094 18.3578 525.339 17.6483 522.54 17.66C512.3 17.66 505.04 25.93 505.04 37.55C505.04 48.67 510.79 55.66 520.04 55.66C522.41 55.66 525.5 54.59 530.25 51.86V55.32L545 53.83V47.61H540.77V18.16ZM530.57 47.77C528.919 48.0615 527.246 48.212 525.57 48.22C519.12 48.22 515.57 44.08 515.57 36.49C515.57 28.6 519.57 24.04 526.57 24.04C527.912 24.0332 529.252 24.1571 530.57 24.41V47.77Z" fill="white"/>
<path d="M535.99 8.72001L533.51 0.76001L532.42 1.20001L516.1 7.82001L517.52 12.57L535.99 8.72001Z" fill="white"/>
<path d="M254.18 0L253.65 0.05L252.41 0.19L238.61 2V6.61H243.7C243.7 7.45 243.7 17.68 243.7 18.74C239.6 17.36 233.88 16.17 228.62 17.95C221.38 20.38 217.3 26.95 217.1 36.34C216.9 44.88 221.31 51.91 228.35 54.22C233.51 55.92 240.35 54.01 244.17 52.22C244.17 52.96 244.3 55.29 244.3 55.29L258.22 53.45V48.77H253.76C253.76 47.77 254.19 0 254.19 0M243.71 47.45C239.01 48.72 233.79 49.67 230.42 45.6C228.42 43.24 228.06 39.71 228.06 36.1C228.06 35.7 228.06 35.27 228.06 34.86C227.95 31.63 229.089 28.4817 231.24 26.07C234.45 22.45 239.94 23.18 243.95 25.07C243.95 25.07 243.69 46.72 243.69 47.47" fill="white"/>
<path d="M279.06 16.45C276.794 16.3509 274.529 16.6556 272.37 17.35C264.68 19.85 260.37 26.59 260.12 36.35C259.9 45.15 264.6 52.35 272.07 54.76C278.69 56.87 288.36 54.58 294.49 51.23L294.83 51.06L293.08 45.73L289.65 46.82C284.65 48.19 278.29 50.72 274.19 45.97C271.98 43.39 271.68 39.52 271.66 36.43L291.97 36.83H294.97V36.39C295.04 35.5 295.09 34.61 295.09 33.76C295.09 16.1 279.66 16.5 278.98 16.48M271.84 31.2C271.94 30.55 272.22 22.93 279.01 22.93C285.8 22.93 286.01 30.38 286.11 31.2H271.84Z" fill="white"/>
</g>
<defs>
<clipPath id="clip0_44_372">
<rect width="545" height="71.02" fill="white"/>
</clipPath>
</defs>
</svg>
