<svg width="43" height="43" viewBox="0 0 43 43" fill="none" xmlns="http://www.w3.org/2000/svg">
<path d="M23.3418 3.58334C25.3574 3.58872 26.3805 3.59947 27.2638 3.62455L27.6114 3.63709C28.0127 3.65143 28.4086 3.66934 28.887 3.69084C30.7933 3.78043 32.0941 4.08143 33.2354 4.52397C34.4179 4.97905 35.4141 5.59539 36.4102 6.58976C37.3213 7.48541 38.0262 8.56882 38.476 9.76459C38.9186 10.9059 39.2196 12.2066 39.3091 14.1148C39.3306 14.5913 39.3486 14.9873 39.3629 15.3904L39.3736 15.738C39.4005 16.6195 39.4113 17.6426 39.4149 19.6582L39.4166 20.9948V23.3418C39.421 24.6487 39.4073 25.9555 39.3754 27.262L39.3647 27.6096C39.3504 28.0127 39.3324 28.4087 39.3109 28.8853C39.2214 30.7934 38.9168 32.0923 38.476 33.2354C38.0275 34.4319 37.3224 35.5155 36.4102 36.4103C35.5143 37.321 34.431 38.0259 33.2354 38.4761C32.0941 38.9186 30.7933 39.2196 28.887 39.3092C28.4619 39.3292 28.0367 39.3471 27.6114 39.3629L27.2638 39.3737C26.3805 39.3988 25.3574 39.4113 23.3418 39.4149L22.0052 39.4167H19.6599C18.3525 39.4212 17.045 39.4074 15.738 39.3755L15.3904 39.3647C14.9651 39.3486 14.5398 39.3301 14.1147 39.3092C12.2084 39.2196 10.9076 38.9186 9.76456 38.4761C8.56892 38.027 7.48595 37.3219 6.59152 36.4103C5.67964 35.5149 4.97404 34.4315 4.52393 33.2354C4.08139 32.0941 3.78039 30.7934 3.69081 28.8853C3.67085 28.4601 3.65293 28.0349 3.63706 27.6096L3.6281 27.262C3.59508 25.9556 3.58015 24.6487 3.58331 23.3418V19.6582C3.57831 18.3513 3.59145 17.0445 3.62273 15.738L3.63527 15.3904C3.6496 14.9873 3.66752 14.5913 3.68902 14.1148C3.7786 12.2066 4.0796 10.9077 4.52214 9.76459C4.97205 8.56759 5.67906 7.48384 6.59331 6.58976C7.48752 5.67865 8.56978 4.97365 9.76456 4.52397C10.9076 4.08143 12.2066 3.78043 14.1147 3.69084C14.5913 3.66934 14.9891 3.65143 15.3904 3.63709L15.738 3.62634C17.0444 3.59451 18.3513 3.58077 19.6581 3.58514L23.3418 3.58334ZM21.5 12.5417C19.1241 12.5417 16.8455 13.4855 15.1655 15.1655C13.4855 16.8455 12.5416 19.1241 12.5416 21.5C12.5416 23.8759 13.4855 26.1545 15.1655 27.8345C16.8455 29.5145 19.1241 30.4583 21.5 30.4583C23.8759 30.4583 26.1545 29.5145 27.8345 27.8345C29.5145 26.1545 30.4583 23.8759 30.4583 21.5C30.4583 19.1241 29.5145 16.8455 27.8345 15.1655C26.1545 13.4855 23.8759 12.5417 21.5 12.5417ZM21.5 16.125C22.2058 16.1249 22.9048 16.2638 23.557 16.5338C24.2091 16.8038 24.8017 17.1996 25.3009 17.6987C25.8001 18.1977 26.1962 18.7902 26.4664 19.4423C26.7366 20.0943 26.8758 20.7933 26.8759 21.4991C26.876 22.205 26.7371 22.9039 26.4671 23.5561C26.1971 24.2083 25.8012 24.8009 25.3022 25.3001C24.8032 25.7993 24.2107 26.1953 23.5586 26.4655C22.9065 26.7357 22.2076 26.8749 21.5018 26.875C20.0762 26.875 18.7091 26.3087 17.7011 25.3007C16.6931 24.2927 16.1268 22.9255 16.1268 21.5C16.1268 20.0745 16.6931 18.7073 17.7011 17.6993C18.7091 16.6913 20.0762 16.125 21.5018 16.125M30.908 9.85418C30.314 9.85418 29.7444 10.0901 29.3244 10.5101C28.9044 10.9301 28.6684 11.4998 28.6684 12.0938C28.6684 12.6877 28.9044 13.2574 29.3244 13.6774C29.7444 14.0974 30.314 14.3333 30.908 14.3333C31.502 14.3333 32.0716 14.0974 32.4916 13.6774C32.9116 13.2574 33.1476 12.6877 33.1476 12.0938C33.1476 11.4998 32.9116 10.9301 32.4916 10.5101C32.0716 10.0901 31.502 9.85418 30.908 9.85418Z" fill="white"/>
</svg>
