<svg xmlns="http://www.w3.org/2000/svg" viewBox="0 0 360.76 356.32"><defs><style>.cls-1{fill:#ffbe00;}.cls-2{fill:#cd3232;}</style></defs><g id="Capa_2" data-name="Capa 2"><g id="Layer_1" data-name="Layer 1"><path class="cls-1" d="M320.81,76.36c0-58-98.26-78.13-162.77-61.56-1.78.59-1.19,1.78,0,1.78,43.8-4.74,97.66,23.08,97.66,56.82,0,24.26-28.41,36.69-45,43.21-1.19.59-.6,1.77.59,1.77,31.37-5.33,59.19-3,81.68-.59,2.37,0,3.55-1.18,5.33-2.37C310.15,107.14,320.81,95.3,320.81,76.36Z"/><path class="cls-2" d="M205.39,4.15a.89.89,0,0,0,0-1.78C86.42-15.39,0,69.25,0,169.28c0,88.79,66.88,167.51,164,167.51,29,0,60.37-7.1,84-25.45,6.52-5.33,9.47-8.29,11.84-17.17,0,0,4.74-18.34.59-35.51-.59-2.37-1.18-2.37-3.55-1.18-20.12,7.69-55,16-83.45,16-77.54,0-126.67-63.33-126.67-130.22C46.76,74.58,110.09,0,205.39,4.15Z"/><path class="cls-1" d="M111.28,156.85c107.13,0,159.81,58.6,159.81,119,0,49.71-45.58,73.39-84.64,78.72a.89.89,0,1,0,0,1.77c90,0,166.32-46.16,166.32-111.27,0-32-18.94-53.87-38.47-73.4-2.37-2.37-3-2.37-4.74-1.18-10.65,7.1-22.49,21.31-28.41,48.53,0,.6-1.18.6-1.18,0,1.18-43.2,28.41-71,79.9-71,1.19,0,1.19-1.19,0-1.78-74.58-34.92-171.06-30.78-248.59,9.47C110.09,156.26,110.68,156.85,111.28,156.85Z"/></g></g></svg>