<svg width="45" height="45" viewBox="0 0 45 45" fill="none" xmlns="http://www.w3.org/2000/svg">
<path d="M22.502 3.75C32.8576 3.75 41.252 12.1444 41.252 22.5C41.252 32.8556 32.8576 41.25 22.502 41.25C19.1884 41.2554 15.9332 40.3784 13.0707 38.7094L3.75948 41.25L6.29448 31.935C4.62403 29.0716 3.74644 25.815 3.75198 22.5C3.75198 12.1444 12.1464 3.75 22.502 3.75ZM16.112 13.6875L15.737 13.7025C15.4942 13.7173 15.2569 13.7811 15.0395 13.89C14.8361 14.0052 14.6504 14.1492 14.4882 14.3175C14.2632 14.5294 14.1357 14.7131 13.9989 14.8913C13.3053 15.7929 12.9319 16.9 12.9376 18.0375C12.9414 18.9563 13.1814 19.8506 13.5564 20.6869C14.3232 22.3781 15.5851 24.1688 17.2501 25.8281C17.6514 26.2275 18.0451 26.6288 18.4689 27.0019C20.5377 28.8234 23.0031 30.137 25.6689 30.8381L26.7339 31.0013C27.0807 31.02 27.4276 30.9938 27.7764 30.9769C28.3224 30.9487 28.8556 30.8008 29.3382 30.5438C29.5838 30.4173 29.8234 30.2796 30.0564 30.1313C30.0564 30.1313 30.137 30.0788 30.2907 29.9625C30.5439 29.775 30.6995 29.6419 30.9095 29.4225C31.0651 29.2613 31.2001 29.0719 31.3032 28.8563C31.4495 28.5506 31.5957 27.9675 31.6557 27.4819C31.7007 27.1106 31.6876 26.9081 31.682 26.7825C31.6745 26.5819 31.5076 26.3738 31.3257 26.2856L30.2345 25.7963C30.2345 25.7963 28.6032 25.0856 27.6057 24.6319C27.5014 24.5863 27.3895 24.5602 27.2757 24.555C27.1474 24.5418 27.0178 24.5563 26.8956 24.5973C26.7733 24.6384 26.6613 24.7052 26.567 24.7931C26.5576 24.7894 26.432 24.8963 25.0764 26.5388C24.9985 26.6433 24.8914 26.7223 24.7685 26.7657C24.6456 26.8091 24.5126 26.815 24.3864 26.7825C24.2642 26.7497 24.1445 26.7084 24.0282 26.6588C23.7957 26.5613 23.7151 26.5238 23.5557 26.4563C22.4796 25.9866 21.4833 25.3522 20.6026 24.5756C20.3664 24.3694 20.147 24.1444 19.922 23.9269C19.1843 23.2204 18.5415 22.4213 18.0095 21.5494L17.8989 21.3713C17.8194 21.2516 17.7552 21.1224 17.7076 20.9869C17.6364 20.7113 17.822 20.49 17.822 20.49C17.822 20.49 18.2776 19.9913 18.4895 19.7213C18.6957 19.4588 18.8701 19.2038 18.9826 19.0219C19.2039 18.6656 19.2732 18.3 19.157 18.0169C18.632 16.7344 18.0882 15.4575 17.5295 14.19C17.4189 13.9388 17.0907 13.7588 16.7926 13.7231C16.6914 13.7119 16.5901 13.7006 16.4889 13.6931C16.2371 13.6806 15.9847 13.6831 15.7332 13.7006L16.112 13.6875Z" fill="white"/>
</svg>
