<svg width="40" height="40" viewBox="0 0 40 40" fill="none" xmlns="http://www.w3.org/2000/svg">
<path d="M16.6666 25L25.3166 20L16.6666 15V25ZM35.9333 11.95C36.1499 12.7333 36.2999 13.7833 36.3999 15.1167C36.5166 16.45 36.5666 17.6 36.5666 18.6L36.6666 20C36.6666 23.65 36.3999 26.3333 35.9333 28.05C35.5166 29.55 34.5499 30.5167 33.0499 30.9333C32.2666 31.15 30.8333 31.3 28.6333 31.4C26.4666 31.5167 24.4833 31.5667 22.6499 31.5667L19.9999 31.6667C13.0166 31.6667 8.66659 31.4 6.94992 30.9333C5.44992 30.5167 4.48325 29.55 4.06659 28.05C3.84992 27.2667 3.69992 26.2167 3.59992 24.8833C3.48325 23.55 3.43325 22.4 3.43325 21.4L3.33325 20C3.33325 16.35 3.59992 13.6667 4.06659 11.95C4.48325 10.45 5.44992 9.48334 6.94992 9.06668C7.73325 8.85001 9.16659 8.70001 11.3666 8.60001C13.5333 8.48334 15.5166 8.43334 17.3499 8.43334L19.9999 8.33334C26.9833 8.33334 31.3333 8.60001 33.0499 9.06668C34.5499 9.48334 35.5166 10.45 35.9333 11.95Z" fill="white"/>
</svg>
